<?xml version="1.0" standalone="no"?>
<!DOCTYPE svg PUBLIC "-//W3C//DTD SVG 20010904//EN"
 "http://www.w3.org/TR/2001/REC-SVG-20010904/DTD/svg10.dtd">
<svg version="1.0" xmlns="http://www.w3.org/2000/svg"
 width="300.000000pt" height="190.000000pt" viewBox="0 0 300.000000 190.000000"
 preserveAspectRatio="xMidYMid meet">
<metadata>
Created by potrace 1.10, written by Peter Selinger 2001-2011
</metadata>
<g transform="translate(0.000000,190.000000) scale(0.100000,-0.100000)"
fill="#000000" stroke="none">
<path d="M1709 1603 c-6 -16 -17 -40 -25 -55 -19 -35 -18 -45 7 -51 19 -5 19
-4 6 11 -12 14 -13 21 -4 37 14 25 36 85 31 85 -3 0 -9 -12 -15 -27z"/>
<path d="M1324 1583 c-19 -20 -34 -43 -34 -50 0 -7 -9 -13 -20 -13 -12 0 -34
-7 -49 -15 -16 -8 -32 -11 -36 -7 -5 4 -6 2 -2 -4 3 -5 -5 -41 -18 -79 -26
-73 -20 -105 10 -59 9 14 12 23 6 19 -8 -4 -10 3 -6 24 12 67 29 92 73 105 17
6 22 3 22 -11 0 -14 2 -15 9 -5 6 11 13 7 30 -14 13 -17 21 -21 21 -12 0 9 -7
21 -15 28 -22 18 -19 32 15 78 23 32 37 42 59 42 23 0 34 -9 60 -51 17 -28 31
-57 31 -65 0 -8 5 -14 10 -14 16 0 12 20 -12 59 -56 94 -98 106 -154 44z"/>
<path d="M1600 1554 c-21 -12 -22 -14 -5 -12 11 1 30 -3 42 -10 17 -9 22 -9
27 4 3 9 2 12 -5 9 -6 -4 -16 0 -22 8 -11 14 -15 14 -37 1z"/>
<path d="M1434 1492 c0 -16 4 -28 7 -26 4 2 10 -4 13 -13 5 -13 9 -14 19 -4 9
10 9 15 -4 24 -8 7 -20 20 -26 31 -9 16 -10 14 -9 -12z"/>
<path d="M1599 1504 c-8 -10 -5 -11 10 -7 17 4 21 0 22 -23 1 -21 3 -24 6 -9
3 11 9 25 14 31 7 8 1 13 -16 16 -14 3 -30 -1 -36 -8z"/>
<path d="M1660 1476 c0 -10 6 -13 15 -10 9 4 15 0 15 -10 0 -9 7 -16 16 -16
14 0 14 3 4 16 -22 26 -50 37 -50 20z"/>
<path d="M1505 1450 c5 -16 3 -19 -11 -13 -29 11 -11 -20 24 -40 l31 -18 -10
28 c-18 56 -21 63 -31 63 -5 0 -7 -9 -3 -20z"/>
<path d="M1246 1432 c-4 -18 -11 -30 -16 -27 -4 2 -18 -19 -31 -49 -15 -33
-29 -52 -36 -49 -13 5 -18 -31 -14 -90 2 -16 -5 -37 -15 -48 -16 -18 -16 -19
-1 -13 15 5 17 -4 17 -90 0 -93 -1 -96 -22 -97 -17 -1 -19 -2 -5 -6 28 -7 23
-67 -8 -87 -14 -9 -25 -22 -25 -28 0 -7 9 -2 21 11 12 12 23 21 25 19 6 -7
-24 -121 -34 -127 -6 -4 -9 -19 -8 -33 3 -30 -13 -40 -129 -87 -27 -11 -42
-20 -32 -20 10 -1 15 -5 12 -11 -3 -6 1 -7 9 -4 9 3 16 12 16 20 0 17 -3 16
40 4 32 -8 33 -8 16 5 -18 14 -18 15 8 25 15 5 29 10 32 10 9 0 3 -33 -12 -63
-19 -37 -34 -49 -52 -42 -7 3 -10 1 -7 -4 6 -11 -1 -16 -38 -25 -22 -5 -27 -4
-21 6 4 7 -2 5 -13 -5 -20 -18 -181 -57 -234 -57 -30 0 -46 -25 -22 -34 10 -4
13 -2 10 7 -4 10 14 17 71 26 43 6 88 14 102 17 24 6 25 6 5 -10 -12 -9 1 -6
30 8 28 13 69 30 93 37 23 7 42 16 42 21 0 4 5 8 10 8 6 0 10 -19 10 -41 l0
-41 58 6 c31 4 71 8 87 9 17 1 33 6 37 12 10 13 16 5 22 -30 3 -17 16 -40 30
-51 19 -17 22 -25 13 -35 -10 -11 -9 -11 5 0 13 9 22 10 38 1 12 -6 26 -9 33
-7 7 2 -5 10 -25 17 -26 10 -40 23 -47 42 -6 15 -12 28 -15 28 -3 0 -2 -7 1
-17 4 -11 3 -14 -5 -9 -7 4 -12 19 -12 34 0 31 -34 59 -53 44 -18 -13 -91 -32
-126 -32 -29 0 -31 2 -31 35 0 20 5 35 11 35 12 0 48 16 149 65 30 15 44 24
30 20 -14 -4 -35 -6 -47 -6 -17 1 -21 -3 -16 -16 4 -10 2 -14 -4 -10 -6 4 -32
-5 -57 -19 -26 -15 -49 -25 -51 -22 -2 2 1 22 6 45 11 40 12 41 42 32 17 -5
33 -6 36 -3 9 9 -23 24 -41 18 -12 -4 -15 0 -11 15 5 21 22 24 35 6 5 -6 8 -3
8 7 0 9 -9 18 -21 20 -20 3 -20 4 5 33 14 17 21 31 16 33 -12 4 -14 32 -2 32
4 0 8 17 9 38 2 24 11 44 25 56 23 18 23 19 1 12 -20 -6 -21 -5 -13 30 5 20 7
81 6 135 -1 55 1 102 6 105 7 4 14 -164 10 -218 -1 -10 2 -18 6 -18 4 0 7 59
7 132 l0 132 35 10 c19 6 42 18 52 28 26 26 37 22 34 -9 -3 -24 -8 -28 -34
-26 -23 1 -29 -2 -25 -13 4 -11 9 -12 18 -4 16 13 31 -6 27 -32 -4 -22 11 -23
28 -3 10 12 10 15 -1 15 -12 0 -12 2 0 9 14 9 44 -11 47 -31 1 -4 2 -14 3 -20
1 -7 7 -2 12 11 9 24 10 24 23 5 30 -43 29 -62 -3 -79 -17 -8 -39 -25 -50 -36
-11 -12 -31 -22 -44 -23 -14 0 -25 -4 -24 -8 1 -3 -20 -22 -46 -41 -42 -30
-46 -35 -28 -40 12 -3 19 -1 16 3 -3 5 9 20 27 33 24 20 36 23 50 16 22 -12
24 -29 3 -29 -8 0 -15 -5 -15 -11 0 -6 7 -8 16 -5 9 3 18 6 20 6 2 0 4 6 4 13
0 10 14 14 45 13 49 -1 60 -17 24 -37 -19 -10 -20 -13 -6 -26 19 -20 37 -9 37
23 0 27 0 27 34 14 31 -11 33 -4 6 18 -17 15 -17 19 -4 30 12 11 17 6 35 -34
11 -26 18 -53 15 -61 -3 -7 -1 -13 5 -13 5 0 14 11 19 24 7 18 14 22 34 19 14
-3 23 -10 20 -15 -3 -5 -12 -7 -20 -4 -14 5 -19 -10 -16 -46 2 -23 -16 -23
-41 -1 -17 16 -19 16 -28 1 -5 -9 -16 -24 -25 -33 -8 -8 -11 -15 -5 -15 5 0
13 5 17 11 5 8 9 8 14 -1 5 -8 12 -7 24 5 14 15 16 15 16 1 0 -21 6 -20 28 2
9 9 16 25 14 35 -2 12 3 17 20 18 13 0 17 3 10 6 -16 6 3 33 24 33 15 0 16 -2
-12 110 -9 36 -18 78 -21 95 -5 27 -4 29 11 16 9 -7 16 -18 16 -23 0 -6 11
-19 25 -30 22 -17 24 -23 13 -35 -11 -14 -10 -15 10 -9 13 5 22 3 22 -3 0 -6
5 -11 11 -11 6 0 -1 14 -15 31 -14 17 -24 35 -21 40 4 5 0 7 -7 4 -13 -5 -72
60 -66 73 2 5 23 26 47 48 l44 39 -17 -32 c-24 -47 -12 -41 18 9 19 32 22 44
13 51 -7 5 -2 6 12 2 17 -5 22 -4 19 6 -7 20 -29 17 -42 -6 -12 -21 -87 -94
-97 -95 -6 0 -15 52 -21 125 -3 34 -28 61 -40 42 -4 -6 -2 -15 4 -18 6 -4 17
-24 24 -45 10 -30 10 -40 1 -46 -8 -5 -9 -8 -1 -8 13 0 25 -58 13 -65 -10 -7
-20 25 -12 37 3 6 2 8 -3 5 -6 -3 -22 17 -37 44 -22 37 -34 49 -52 49 -13 0
-29 8 -35 18 -9 14 -11 14 -7 1 5 -13 -2 -17 -34 -17 -34 -1 -41 3 -49 24 -6
14 -15 22 -21 19 -7 -5 -5 -15 5 -31 21 -31 21 -31 -13 -48 -26 -14 -29 -14
-27 2 0 9 5 20 11 24 5 4 6 11 1 15 -5 4 -11 2 -13 -5 -4 -10 -8 -10 -21 0
-15 12 -16 11 -3 -5 18 -23 7 -34 -16 -16 -16 13 -17 12 -4 -3 12 -16 11 -18
-2 -18 -9 0 -19 -4 -22 -10 -4 -6 3 -6 21 0 44 17 39 3 -6 -20 l-43 -22 7 27
c4 15 10 40 13 56 3 16 10 29 15 29 5 0 6 5 2 11 -9 16 15 56 37 62 12 3 25
-3 35 -16 l15 -22 -3 25 c-2 20 -8 25 -30 23 -22 -1 -27 3 -30 25 -4 26 -4 26
-12 -6z m-39 -119 c-18 -51 -21 -75 -14 -88 7 -13 6 -16 -2 -11 -6 4 -11 1
-11 -8 0 -9 -5 -16 -10 -16 -16 0 -1 79 28 142 15 31 28 56 29 54 2 -2 -7 -35
-20 -73z m253 -23 c21 -29 62 -72 65 -68 3 2 -3 13 -13 24 -34 38 -44 54 -35
54 13 0 56 -61 56 -79 0 -9 5 -23 12 -31 30 -36 47 -91 42 -131 -7 -51 -15
-59 -33 -35 -8 11 -14 16 -14 11 0 -5 7 -16 16 -26 14 -15 14 -23 3 -53 -16
-43 -24 -45 -37 -8 -5 15 -19 43 -32 62 -20 33 -21 33 -16 8 5 -21 3 -28 -9
-28 -8 0 -14 -3 -14 -7 5 -30 -3 -33 -28 -14 -22 18 -29 19 -42 8 -20 -15 -53
-16 -58 0 -2 6 4 14 14 17 10 4 36 22 58 41 44 39 55 43 55 19 0 -8 -4 -12
-10 -9 -5 3 -10 -1 -10 -9 0 -26 17 -26 29 0 13 30 15 67 2 59 -12 -7 -25 31
-15 46 4 7 3 9 -3 6 -6 -4 -14 0 -17 9 -4 10 -12 14 -22 10 -19 -7 -44 16 -44
42 0 22 -26 37 -33 19 -2 -7 -4 1 -3 16 1 25 4 28 28 25 15 -3 26 -2 25 2 -1
3 5 12 12 21 14 15 60 14 71 -1z m153 -264 c3 -7 9 -34 12 -60 6 -39 5 -46 -9
-46 -9 0 -16 6 -16 13 0 8 -3 7 -10 -3 -7 -11 -12 -12 -21 -3 -8 8 -8 17 2 34
15 27 16 31 18 59 1 23 16 27 24 6z"/>
<path d="M1403 1260 c-25 -10 -31 -40 -9 -40 19 0 48 29 41 41 -4 5 -7 9 -8 8
-1 0 -12 -4 -24 -9z"/>
<path d="M1395 1211 c-25 -6 -27 -8 -11 -14 10 -4 24 -3 30 2 6 5 22 11 36 14
l25 4 -25 0 c-14 1 -38 -2 -55 -6z"/>
<path d="M1518 1136 c-21 -12 -38 -26 -38 -33 0 -8 12 -5 35 8 61 36 63 58 3
25z"/>
<path d="M1505 1065 c16 -13 17 -17 6 -24 -7 -5 -12 -14 -9 -21 2 -8 10 -3 20
12 16 25 16 26 -10 37 -26 11 -26 10 -7 -4z"/>
<path d="M1340 1441 c0 -6 8 -19 18 -29 9 -9 27 -31 39 -47 13 -18 22 -24 22
-15 0 8 -18 35 -39 59 -22 24 -40 38 -40 32z"/>
<path d="M2255 1408 c-22 -11 -53 -32 -70 -45 -57 -47 -184 -172 -170 -166 11
4 14 0 9 -13 -8 -23 -6 -20 65 63 52 62 175 163 198 163 9 0 11 -13 8 -42 -2
-24 -7 -83 -10 -131 -8 -131 -28 -161 -116 -176 -30 -5 -44 -9 -31 -10 21 -1
30 -15 15 -24 -5 -2 -2 -2 5 0 9 2 11 -3 7 -17 -18 -56 74 38 116 121 20 37
24 62 27 171 3 71 0 128 -4 128 -5 -1 -27 -10 -49 -22z m-50 -368 c-13 -15
-22 -17 -29 -10 -12 12 8 30 33 30 11 0 10 -5 -4 -20z"/>
<path d="M962 1400 c-19 -10 -37 -22 -40 -26 -8 -8 -3 -6 50 21 l37 19 21 -25
21 -24 -17 28 c-19 32 -27 32 -72 7z"/>
<path d="M2004 1412 c15 -7 11 -11 -25 -28 -24 -10 -49 -18 -55 -16 -15 3 -28
-15 -15 -22 4 -3 33 8 62 24 30 16 67 30 83 30 41 0 30 6 -24 13 -25 3 -37 3
-26 -1z"/>
<path d="M1775 1380 c-3 -5 -27 -10 -53 -11 -26 0 -67 -4 -92 -9 -30 -5 -10
-6 60 -3 l105 5 -33 -21 c-18 -12 -30 -26 -27 -31 8 -13 41 4 53 26 8 14 12
14 30 3 12 -8 22 -20 22 -27 0 -7 5 -10 11 -6 6 3 15 0 20 -7 6 -11 -2 -17
-34 -26 l-42 -12 46 5 c41 5 47 3 62 -20 9 -14 17 -32 17 -40 0 -8 4 -17 9
-20 11 -7 2 34 -10 50 -5 6 -7 13 -4 16 3 3 -4 13 -15 23 -24 22 -26 35 -5 35
19 0 19 7 1 26 -8 8 -17 10 -20 5 -4 -5 -1 -11 6 -13 9 -3 9 -6 1 -11 -6 -4
-24 3 -40 16 -15 13 -36 27 -46 30 -10 4 -15 11 -12 17 3 5 4 10 1 10 -3 0 -8
-4 -11 -10z"/>
<path d="M1271 1353 c-7 -8 -11 -17 -8 -20 8 -7 47 7 47 17 0 15 -25 17 -39 3z"/>
<path d="M1058 1350 c21 -24 14 -37 -40 -71 -29 -18 -61 -41 -71 -51 -10 -10
-22 -16 -28 -13 -5 4 -9 2 -9 -4 0 -5 -17 -20 -37 -32 -21 -13 -41 -28 -45
-33 -4 -6 -8 -7 -8 -3 0 5 -7 2 -15 -7 -9 -8 -47 -36 -86 -62 -38 -26 -72 -51
-75 -56 -12 -18 17 -6 55 25 66 52 93 72 136 97 22 13 41 28 43 32 2 4 8 8 14
8 5 0 21 9 35 20 14 11 30 17 36 13 5 -3 7 -2 4 4 -3 5 15 23 40 39 26 16 53
35 60 43 17 16 20 13 27 -22 3 -19 0 -30 -14 -37 -13 -7 -20 -6 -23 3 -4 8 -6
7 -6 -3 -1 -9 4 -21 11 -28 6 -6 8 -15 3 -19 -4 -5 -10 -2 -12 5 -3 6 -9 12
-15 12 -6 0 -8 -7 -4 -15 3 -8 0 -15 -6 -15 -6 0 -8 -3 -5 -7 4 -3 -1 -12 -11
-20 -16 -13 -15 -13 3 -5 11 6 25 12 30 14 6 1 9 6 8 11 -2 4 1 7 7 7 5 0 16
15 25 33 8 17 22 43 32 57 10 13 13 21 6 17 -7 -5 -17 1 -23 13 -10 18 -8 22
9 27 11 3 18 9 15 15 -3 5 -12 4 -20 -3 -11 -9 -19 -8 -37 7 -12 10 -16 12 -9
4z"/>
<path d="M932 1288 c-7 -28 -11 -53 -8 -55 2 -2 9 19 16 47 7 28 10 53 8 55
-3 3 -10 -18 -16 -47z"/>
<path d="M2182 1298 c-45 -22 -81 -42 -79 -45 3 -2 40 14 83 36 43 22 80 38
82 36 2 -2 -8 -21 -22 -44 -14 -22 -26 -43 -26 -47 0 -6 -29 -43 -81 -103 -16
-19 -29 -38 -29 -43 0 -5 -6 -6 -12 -2 -10 5 -10 4 -1 -6 7 -8 14 -12 16 -9 3
2 32 42 65 89 34 47 66 90 72 97 5 7 10 19 10 27 0 8 5 18 10 21 12 7 14 35 3
35 -5 0 -45 -19 -91 -42z"/>
<path d="M1600 1321 c13 -9 13 -11 0 -11 -8 -1 -1 -7 15 -14 30 -13 65 -11 65
4 0 4 -12 10 -27 12 -16 3 -37 8 -48 13 -16 5 -17 5 -5 -4z"/>
<path d="M2340 1262 c24 -20 24 -21 7 -56 -9 -20 -21 -36 -27 -36 -5 0 -10 -6
-10 -12 1 -7 14 3 31 22 34 41 34 67 -1 88 l-25 14 25 -20z"/>
<path d="M492 1182 c-2 -47 18 -112 34 -112 2 0 -1 10 -8 23 -7 12 -15 49 -19
82 l-6 60 -1 -53z"/>
<path d="M1753 1213 c-14 -5 -18 -25 -5 -21 4 1 17 -4 30 -11 23 -12 23 -12 7
13 -10 14 -18 26 -19 25 0 0 -7 -3 -13 -6z"/>
<path d="M998 1192 c-4 -16 -14 -22 -33 -22 -18 0 -24 4 -19 13 5 8 2 8 -9 -2
-9 -7 -17 -19 -16 -25 0 -7 2 -8 5 0 2 6 17 9 32 6 30 -4 57 18 50 40 -3 7 -7
2 -10 -10z"/>
<path d="M1941 1163 c-24 -15 -55 -37 -69 -50 -14 -13 -28 -23 -32 -23 -16 0
-92 -71 -85 -78 3 -3 14 3 25 14 27 27 35 33 128 98 45 32 82 60 82 62 0 6 -1
5 -49 -23z"/>
<path d="M1078 1138 c-16 -15 -28 -31 -28 -35 0 -4 5 -2 12 5 19 19 33 14 16
-5 -8 -10 -20 -33 -28 -50 -7 -18 -16 -30 -21 -28 -4 3 -6 -4 -4 -15 2 -11 0
-18 -5 -15 -5 3 -11 1 -15 -5 -3 -5 0 -10 7 -10 7 0 2 -10 -12 -21 -14 -11
-19 -18 -12 -14 14 7 17 -11 2 -20 -6 -4 -8 -10 -5 -15 3 -4 -7 -18 -22 -30
-16 -12 -20 -19 -10 -16 18 6 24 -9 7 -19 -5 -3 -10 -14 -10 -23 0 -19 59 96
60 116 0 6 5 12 10 12 6 0 10 5 10 12 0 11 14 44 62 146 25 54 20 64 -14 30z"/>
<path d="M1966 1094 c-27 -51 -44 -74 -57 -74 -10 0 -21 -4 -24 -10 -3 -5 -16
-10 -28 -10 -12 0 -33 -6 -47 -14 -23 -12 -28 -10 -52 12 l-26 24 -16 -31 c-9
-17 -12 -31 -6 -31 5 0 10 7 10 15 0 16 9 19 34 9 22 -8 20 -24 -3 -24 -10 0
-21 -8 -23 -17 -4 -14 2 -18 21 -19 14 -1 20 1 13 3 -9 4 -10 8 -2 18 15 18
74 -10 66 -32 -3 -8 -2 -12 3 -8 5 3 16 2 24 -1 13 -5 12 -13 -9 -51 -30 -52
-27 -61 8 -33 14 10 29 16 34 12 5 -4 1 2 -9 14 -9 11 -14 24 -10 27 11 12 23
8 23 -8 0 -8 41 25 90 72 50 48 90 93 90 101 0 9 7 11 21 7 19 -6 20 -5 8 7
-11 13 -24 3 -92 -69 -44 -45 -84 -80 -90 -76 -6 3 -7 1 -3 -5 5 -8 0 -12 -13
-12 -21 0 -21 0 -1 38 10 20 24 49 29 65 6 15 18 27 28 27 13 0 14 3 5 8 -9 7
-6 20 14 58 14 27 30 54 35 61 6 6 6 14 1 16 -4 3 -25 -28 -46 -69z m-46 -95
c0 -14 -42 -89 -49 -89 -14 1 -81 59 -74 63 4 3 25 8 46 12 20 4 40 11 43 16
8 13 34 11 34 -2z"/>
<path d="M2520 1148 c-19 -5 -39 -14 -45 -20 -7 -8 -4 -9 10 -3 11 4 37 9 58
12 54 8 49 -17 -10 -51 -27 -15 -37 -24 -23 -20 35 9 80 43 80 59 0 23 -32 33
-70 23z"/>
<path d="M955 1142 c-24 -4 -26 -6 -11 -11 16 -6 14 -11 -19 -35 -42 -32 -50
-30 -35 9 6 15 9 30 6 32 -2 2 -11 -18 -21 -44 -11 -31 -29 -57 -49 -71 -17
-12 -25 -22 -18 -22 6 0 12 -5 12 -11 0 -6 -9 -9 -19 -6 -12 3 -27 -3 -37 -14
-21 -23 -17 -23 31 -3 21 8 35 20 32 27 -2 7 22 32 54 57 77 58 113 90 108 93
-2 1 -17 1 -34 -1z"/>
<path d="M1320 1106 c0 -17 20 -33 41 -33 22 0 17 29 -7 38 -28 11 -34 10 -34
-5z"/>
<path d="M1706 1087 c17 -31 34 -27 34 8 0 18 -5 23 -24 21 -23 -1 -23 -2 -10
-29z"/>
<path d="M2445 1089 c-48 -24 -53 -28 -26 -23 49 9 143 54 111 53 -14 0 -52
-14 -85 -30z"/>
<path d="M1009 1094 c-7 -9 -38 -33 -69 -54 -30 -21 -83 -60 -117 -86 -34 -27
-76 -60 -95 -74 -18 -13 -51 -43 -73 -66 -65 -66 -156 -143 -169 -141 -6 1
-10 -3 -9 -9 1 -5 -32 -43 -73 -83 -77 -76 -86 -91 -56 -91 18 0 148 42 179
58 10 6 41 20 68 32 28 12 66 31 85 42 19 11 59 31 88 44 28 14 52 29 52 34 0
5 -26 -5 -57 -21 -115 -60 -129 -67 -193 -97 -77 -36 -188 -74 -202 -70 -5 2
31 42 79 88 165 159 285 270 291 270 3 0 14 7 24 17 17 15 18 15 18 -13 0 -16
7 -38 15 -48 12 -16 12 -22 2 -29 -9 -6 -8 -7 4 -4 9 3 22 1 29 -3 11 -7 11
-11 1 -24 -7 -8 -11 -23 -8 -33 4 -15 5 -14 6 3 0 12 8 27 17 35 14 11 13 14
-8 25 -22 13 -22 13 -2 14 12 0 28 8 35 17 12 15 12 16 -3 10 -9 -3 -19 -1
-21 6 -2 7 -3 5 -2 -5 4 -27 -31 -29 -44 -1 -25 55 -15 74 70 138 45 33 89 65
98 70 27 16 71 52 71 59 0 12 -18 6 -31 -10z"/>
<path d="M2350 1085 c-7 -8 -23 -15 -36 -15 -12 0 -25 -4 -28 -9 -3 -4 12 -5
34 -1 21 4 44 3 49 -2 6 -4 9 -5 6 -2 -3 4 0 13 7 21 6 7 8 16 4 20 -3 3 -6 0
-6 -8 0 -11 -2 -11 -9 -1 -6 10 -10 10 -21 -3z"/>
<path d="M1081 1047 c-7 -19 -9 -41 -5 -51 5 -12 2 -15 -12 -9 -12 4 -15 3
-10 -5 15 -25 35 -13 34 21 0 17 2 42 6 55 4 12 5 22 2 22 -2 0 -9 -15 -15
-33z"/>
<path d="M1255 1060 c-3 -5 -3 -14 0 -20 3 -5 2 -10 -3 -10 -6 0 -12 -6 -15
-14 -4 -11 -1 -11 18 -3 14 7 23 20 23 34 0 24 -12 30 -23 13z"/>
<path d="M2410 1048 c-14 -5 -36 -11 -50 -12 -31 -3 -95 -30 -104 -45 -4 -6
-3 -11 3 -11 5 0 13 5 16 10 16 25 24 6 10 -22 -15 -30 -15 -31 0 -13 9 11 22
29 30 40 8 11 14 15 14 9 1 -6 -12 -31 -29 -55 -31 -46 -36 -59 -22 -59 5 0
23 29 40 64 17 36 37 68 43 72 9 5 10 2 6 -9 -5 -14 -1 -13 22 4 16 12 44 25
62 29 27 6 29 8 9 8 -14 1 -36 -4 -50 -10z"/>
<path d="M930 990 c-21 -7 -12 -15 12 -11 4 0 5 -5 2 -13 -3 -7 3 -16 13 -20
9 -4 14 -4 11 0 -4 3 -1 13 7 21 31 30 10 41 -45 23z"/>
<path d="M2111 962 c-19 -18 -56 -44 -83 -58 -26 -13 -48 -29 -48 -35 0 -8
-13 -10 -37 -6 -21 4 -32 3 -25 -2 10 -6 8 -11 -5 -23 -10 -8 -26 -18 -35 -21
-10 -4 -18 -11 -18 -17 0 -6 29 5 63 24 35 20 67 33 71 28 4 -4 6 0 4 8 -1 8
2 14 7 15 29 2 156 98 147 111 -4 5 -22 -6 -41 -24z"/>
<path d="M1337 918 c-10 -10 -22 -16 -27 -13 -6 4 -10 2 -10 -4 0 -18 18 -21
34 -5 9 8 20 12 26 9 5 -3 10 1 10 9 0 23 -13 25 -33 4z"/>
<path d="M2249 909 c-9 -17 -8 -23 2 -30 7 -4 10 -11 7 -15 -4 -3 -2 -12 5
-19 9 -10 14 -9 24 4 7 9 12 21 12 26 0 6 -6 2 -13 -8 -13 -16 -14 -16 -20 7
-3 13 -3 32 0 40 9 23 -3 19 -17 -5z"/>
<path d="M561 828 c-29 -51 -45 -86 -38 -78 17 17 101 170 94 170 -3 0 -28
-42 -56 -92z"/>
<path d="M915 891 c-24 -47 -56 -133 -47 -127 4 2 14 1 21 -4 10 -6 6 -12 -16
-24 -29 -14 -49 -43 -38 -54 2 -3 7 2 11 11 6 16 63 51 71 43 2 -2 -1 -15 -7
-30 -5 -15 -10 -33 -9 -39 0 -7 7 5 15 27 7 21 12 42 9 46 -6 9 44 43 62 43 7
0 13 3 13 7 0 4 18 15 40 25 22 10 40 22 40 27 0 11 -17 10 -24 -1 -11 -17
-127 -72 -138 -65 -7 5 -8 3 -3 -6 6 -10 4 -12 -9 -7 -10 4 -20 7 -22 7 -10 0
-3 29 11 40 8 7 13 16 10 20 -3 4 2 10 10 14 8 3 15 13 15 22 0 10 7 26 17 36
15 17 15 18 0 18 -9 0 -23 -13 -32 -29z"/>
<path d="M1200 898 c0 -8 7 -37 15 -64 18 -59 18 -64 4 -64 -5 0 -7 5 -3 12 4
7 3 8 -5 4 -6 -4 -9 -12 -5 -17 3 -5 2 -8 -3 -7 -10 3 -53 -24 -53 -34 0 -5
17 1 37 12 21 11 43 20 49 20 8 0 6 21 -7 65 -10 36 -18 68 -18 71 1 3 -2 8
-5 12 -3 3 -6 -1 -6 -10z"/>
<path d="M1717 889 c5 -19 4 -20 -13 -11 -14 8 -23 7 -36 -5 -17 -15 -18 -15
-18 3 -1 18 -1 18 -11 1 -5 -9 -7 -22 -4 -28 4 -5 2 -15 -4 -22 -7 -10 -5 -13
10 -14 12 -1 19 5 19 15 0 25 38 46 56 31 21 -17 17 -25 -18 -37 -32 -10 -31
-10 17 -9 28 1 56 -1 64 -3 7 -3 16 2 18 10 3 11 2 12 -4 2 -7 -9 -16 -7 -36
11 -30 25 -35 40 -12 31 8 -4 15 -1 15 5 0 6 -6 11 -12 11 -10 0 -10 2 0 9 11
7 10 10 -3 15 -28 10 -33 7 -28 -15z"/>
<path d="M1240 896 c0 -5 8 -18 17 -28 14 -16 15 -23 5 -41 -13 -22 -13 -22 7
1 22 25 31 28 31 9 0 -7 -9 -18 -19 -24 -21 -13 -22 -44 -3 -51 15 -5 16 14 2
23 -18 11 2 27 26 21 14 -4 24 -2 24 4 0 5 -4 10 -8 10 -4 0 -8 9 -9 20 -2 23
7 26 25 8 9 -9 12 -8 12 4 0 27 31 30 57 6 14 -13 22 -16 18 -8 -9 26 -42 41
-67 31 -13 -4 -31 -7 -40 -6 -10 2 -18 -1 -18 -6 0 -5 -7 -9 -16 -9 -10 0 -14
5 -10 16 4 9 2 13 -5 8 -6 -4 -15 0 -20 7 -5 8 -9 10 -9 5z"/>
<path d="M1960 832 c0 -5 -10 -14 -22 -21 l-23 -11 23 6 c12 3 22 1 22 -5 0
-6 8 -11 18 -11 16 1 16 1 -1 11 -9 6 -15 14 -12 19 3 5 29 -3 58 -17 43 -22
69 -27 154 -31 64 -3 103 -1 103 5 0 6 -29 8 -74 5 -73 -4 -109 3 -203 44 -36
16 -43 17 -43 6z"/>
<path d="M1350 822 c0 -19 27 -44 35 -33 3 6 12 8 19 5 7 -3 19 3 26 13 12 15
12 16 0 6 -17 -16 -34 -17 -24 -2 4 8 -1 9 -16 4 -15 -5 -25 -2 -31 6 -7 11
-9 11 -9 1z"/>
<path d="M1424 768 c-17 -13 -41 -33 -54 -45 -13 -13 -37 -23 -54 -24 -27 0
-28 -2 -11 -9 19 -8 19 -9 -2 -9 -22 -1 -36 12 -39 37 -4 22 -14 27 -24 12 -6
-8 -10 -19 -10 -25 0 -5 5 -3 10 5 8 13 10 12 10 -2 0 -12 -8 -18 -24 -18 -13
0 -27 -6 -30 -12 -3 -7 -3 -3 0 10 4 17 1 22 -15 22 -25 0 -39 -20 -14 -21 10
0 13 -3 6 -6 -7 -2 -13 -9 -13 -14 0 -13 47 -11 70 3 16 11 22 9 35 -7 9 -11
14 -14 10 -7 -4 8 3 12 22 12 20 0 49 17 96 55 59 49 75 65 64 65 -2 0 -17
-10 -33 -22z"/>
<path d="M1443 754 c-43 -36 -56 -58 -28 -48 8 4 12 10 9 15 -3 5 2 6 10 3 9
-4 16 -1 16 6 0 17 30 39 53 40 9 0 17 5 17 10 0 21 -36 8 -77 -26z"/>
<path d="M1644 775 c3 -8 1 -15 -5 -15 -6 0 -6 -7 1 -19 18 -35 10 -46 -67
-81 -41 -19 -71 -36 -65 -38 6 -2 38 11 72 28 34 17 65 28 68 25 8 -8 -68 -74
-86 -75 -7 0 -15 -7 -18 -15 -4 -10 -14 -14 -28 -10 -15 4 -17 3 -8 -3 11 -7
11 -10 -2 -15 -20 -8 -21 -27 -1 -27 8 0 15 6 15 13 0 8 12 20 28 27 15 8 39
25 54 39 37 33 44 22 16 -25 -22 -37 -48 -100 -48 -117 0 -9 51 50 112 130 18
23 37 42 41 43 5 0 5 -5 2 -10 -4 -6 -3 -10 2 -9 4 1 15 1 23 -1 11 -1 9 -4
-5 -11 -20 -9 -20 -9 0 -7 11 1 43 -11 70 -27 72 -42 73 -43 67 -92 -2 -13
-94 -60 -132 -67 -14 -2 -45 -9 -70 -15 -25 -7 -85 -15 -135 -20 -54 -5 -72
-9 -45 -10 145 -4 330 44 382 100 18 18 34 27 45 23 14 -4 14 -3 -2 7 -11 7
-28 23 -38 36 -10 12 -34 30 -53 39 -19 9 -34 20 -34 25 0 5 -6 9 -13 9 -8 0
-24 11 -37 24 -19 21 -20 27 -9 39 8 7 27 34 43 60 16 25 32 44 36 42 3 -2 12
0 20 6 11 6 8 9 -12 9 -15 0 -30 -5 -34 -11 -6 -10 -113 -62 -124 -60 -3 0 -5
9 -6 20 -1 10 -4 23 -8 29 -3 6 0 13 6 15 8 3 5 6 -6 6 -12 1 -16 -4 -12 -14z
m115 -60 c-8 -9 -21 -24 -30 -33 -9 -9 -25 -31 -35 -48 -24 -38 -65 -87 -84
-99 -8 -5 -2 12 13 37 15 26 27 53 27 62 0 8 9 20 20 26 11 6 32 22 47 37 l28
26 -32 -19 c-18 -10 -33 -22 -33 -26 0 -4 -4 -8 -10 -8 -19 0 -10 15 25 38 18
13 38 21 44 18 5 -4 13 -1 16 5 4 5 9 8 12 5 3 -2 -1 -12 -8 -21z"/>
<path d="M1890 771 c0 -5 8 -7 19 -4 11 3 21 -2 24 -10 5 -13 -1 -15 -27 -10
-19 3 -36 1 -40 -5 -4 -7 4 -9 22 -7 45 6 58 -8 36 -39 -20 -27 -74 -37 -74
-13 0 9 -2 9 -9 -1 -4 -8 -17 -13 -27 -12 -31 4 -58 0 -52 -6 3 -3 45 -6 94
-7 69 -1 89 2 92 13 5 13 3 13 -12 1 -9 -8 -19 -11 -22 -8 -3 3 3 12 15 19 12
7 21 20 21 30 0 13 11 18 53 21 l52 3 -52 2 c-29 1 -53 7 -53 12 0 6 7 10 16
8 10 -2 19 2 20 7 2 6 -18 11 -46 12 -28 1 -50 -2 -50 -6z"/>
<path d="M2000 768 c0 -4 9 -8 20 -8 11 0 28 -5 39 -11 13 -9 22 -9 37 0 17
11 16 12 -9 6 -17 -3 -26 -2 -23 4 3 5 -10 11 -29 13 -19 2 -35 0 -35 -4z"/>
<path d="M1327 762 c-9 -2 -17 -8 -17 -13 0 -6 5 -7 10 -4 6 3 10 2 10 -4 0
-5 -6 -12 -12 -14 -8 -4 -7 -6 3 -6 9 -1 19 6 23 14 3 8 12 15 20 15 8 0 17 4
20 9 6 8 -21 10 -57 3z"/>
<path d="M1527 751 c-3 -15 1 -18 19 -17 27 1 29 7 12 24 -17 17 -25 15 -31
-7z"/>
<path d="M2183 727 c-24 -50 -24 -58 9 -85 17 -15 40 -30 51 -35 17 -6 18 -5
7 8 -8 9 -27 24 -44 33 -25 13 -28 17 -13 20 18 4 18 4 0 17 -16 12 -16 17 -5
35 7 12 12 24 9 26 -2 2 -8 -6 -14 -19z"/>
<path d="M1584 731 c5 -7 -5 -11 -28 -11 -32 0 -36 -3 -36 -25 0 -19 5 -25 23
-25 14 0 18 3 10 8 -19 12 0 31 35 34 38 3 38 4 11 19 -15 8 -19 8 -15 0z"/>
<path d="M2055 710 c-3 -6 -3 -10 2 -9 36 6 43 -13 16 -44 -18 -20 -18 -20 10
-2 31 20 31 32 0 52 -15 10 -23 11 -28 3z"/>
<path d="M990 680 c-39 -22 -54 -25 -45 -10 3 6 1 10 -5 10 -7 0 -10 -7 -6
-15 5 -13 0 -17 -20 -14 -4 0 -10 -3 -13 -8 -9 -13 -80 -53 -94 -53 -6 0 7 18
28 40 21 22 35 40 29 40 -14 0 -74 -63 -74 -78 0 -7 -9 -12 -19 -12 -11 0 -29
-12 -41 -27 -11 -14 -31 -27 -43 -29 -13 -1 -47 -16 -75 -33 -29 -17 -66 -32
-83 -33 -33 -3 -53 -18 -22 -18 33 1 138 28 113 29 -21 1 -18 5 20 22 65 30
91 34 84 12 -5 -15 -4 -15 4 -3 6 8 9 17 6 21 -2 4 3 12 11 19 8 7 12 16 9 21
-3 5 1 6 9 3 8 -3 68 22 134 55 66 34 125 61 131 61 7 0 12 5 12 10 0 14 -10
12 -50 -10z"/>
<path d="M1454 689 c-3 -5 -25 -9 -50 -9 -24 0 -44 -4 -44 -9 0 -11 -56 -32
-64 -24 -3 4 -6 1 -6 -6 0 -8 7 -10 20 -6 25 8 26 -3 3 -25 -17 -16 -19 -15
-30 9 l-12 26 6 -30 c3 -16 7 -32 9 -33 6 -8 54 34 59 51 4 9 13 17 21 17 9 0
12 5 8 11 -4 7 1 10 11 7 27 -5 29 -25 3 -31 -12 -4 -19 -9 -15 -13 4 -4 2
-13 -5 -21 -6 -7 -8 -16 -4 -20 3 -3 6 -1 6 6 0 7 5 9 12 5 8 -5 9 0 6 14 -4
14 -1 22 6 22 7 0 21 7 32 16 10 8 13 13 7 9 -7 -3 -13 -1 -13 4 0 6 18 11 40
11 22 0 40 4 40 9 0 12 -39 21 -46 10z"/>
<path d="M2114 655 c3 -8 -1 -21 -9 -29 -20 -19 -19 -32 0 -16 12 10 15 10 15
-1 0 -7 7 -3 16 10 9 13 19 19 23 14 3 -5 24 -22 46 -38 40 -28 40 -28 -5 12
-41 38 -46 40 -62 26 -20 -18 -23 -11 -8 18 9 15 7 19 -6 19 -10 0 -14 -5 -10
-15z"/>
<path d="M1464 625 c-17 -23 -182 -101 -192 -91 -8 8 9 26 19 21 5 -4 9 -1 9
4 0 18 -18 12 -34 -11 -22 -31 -20 -41 5 -33 16 5 19 4 14 -5 -5 -8 -4 -11 3
-6 6 3 13 -6 17 -24 4 -18 13 -30 23 -30 12 0 13 3 4 12 -7 7 -12 18 -12 26 0
8 -7 20 -16 27 -18 13 -18 13 40 18 13 1 22 5 20 9 -8 13 53 38 98 41 9 1 16
4 16 7 0 3 1 7 2 10 2 6 7 50 5 50 0 0 -10 -11 -21 -25z"/>
<path d="M1930 630 c-10 -6 -11 -10 -3 -10 9 0 10 -7 3 -25 -7 -19 -6 -23 5
-18 9 3 15 18 15 34 0 33 0 32 -20 19z"/>
<path d="M896 599 c-11 -36 -13 -59 -6 -64 4 -2 10 12 13 32 6 37 1 58 -7 32z"/>
<path d="M1380 527 c-14 -13 -32 -32 -40 -42 -14 -19 -14 -19 5 -5 11 8 23 20
27 25 5 6 8 3 8 -7 0 -9 -7 -21 -16 -26 -11 -6 -13 -11 -5 -16 6 -4 11 -3 11
2 0 6 14 15 30 21 17 5 30 16 30 22 0 10 -3 10 -12 1 -7 -7 -15 -12 -18 -12
-9 0 -6 32 4 48 10 17 5 15 -24 -11z"/>
<path d="M1740 533 c-19 -3 -39 -8 -43 -12 -5 -5 15 -5 44 0 45 7 85 22 48 17
-8 0 -30 -3 -49 -5z"/>
<path d="M1775 514 l-40 -14 39 5 c37 4 54 11 45 19 -2 2 -22 -3 -44 -10z"/>
<path d="M1541 476 c-6 -7 -22 -11 -35 -9 -19 4 -24 0 -28 -21 l-5 -25 29 17
c29 17 66 52 56 52 -3 0 -11 -6 -17 -14z"/>
<path d="M1382 448 c-1 -11 -10 -18 -22 -18 -17 0 -19 -2 -8 -14 9 -9 15 -10
20 -3 3 6 8 -1 10 -14 2 -20 9 -24 38 -26 28 -2 31 -1 15 7 -17 7 -18 9 -2 9
9 1 17 5 17 10 0 5 -8 15 -17 22 -15 11 -16 11 -6 -1 10 -11 9 -16 -5 -26 -26
-21 -31 -17 -35 29 -2 23 -4 34 -5 25z"/>
<path d="M337 381 c-9 -27 -17 -60 -17 -75 0 -22 4 -26 28 -26 15 0 34 5 42
10 10 6 3 8 -22 3 -35 -5 -38 -4 -38 19 0 14 7 42 16 63 8 20 14 41 12 46 -2
5 -11 -13 -21 -40z"/>
<path d="M738 395 c-26 -14 -49 -29 -52 -34 -3 -5 19 4 49 21 30 16 55 31 55
34 0 6 0 6 -52 -21z"/>
<path d="M1135 405 c-26 -12 -27 -14 -8 -15 28 0 53 10 53 21 0 12 -8 10 -45
-6z"/>
<path d="M1940 376 c0 -9 5 -16 11 -16 5 0 7 -5 4 -10 -4 -6 -11 -8 -16 -5 -5
4 -9 1 -9 -4 0 -6 -5 -10 -12 -8 -6 1 -13 -7 -14 -18 -2 -15 -2 -16 2 -2 3 9
10 15 15 12 5 -4 5 -14 -2 -27 -16 -30 6 -49 26 -22 8 10 15 23 15 28 0 6 -7
1 -15 -10 -12 -16 -14 -16 -15 -3 0 9 9 28 21 43 19 24 19 27 5 42 -15 14 -16
14 -16 0z"/>
<path d="M898 365 c-11 -11 10 -99 28 -112 37 -27 155 -10 189 27 10 11 21 18
25 15 4 -2 20 10 36 28 24 26 25 28 3 9 -14 -12 -29 -22 -34 -22 -4 0 -24 -12
-42 -26 -45 -35 -150 -46 -176 -20 -14 14 -23 65 -18 99 1 8 -3 9 -11 2z"/>
<path d="M1302 358 c-18 -18 -15 -53 6 -71 14 -13 21 -14 30 -5 7 7 12 17 12
23 0 5 -5 2 -11 -8 -8 -14 -14 -16 -25 -6 -11 9 -7 15 23 30 21 11 38 19 39
19 1 0 0 -10 -3 -22 -3 -13 -2 -20 2 -16 4 4 9 19 10 32 l3 26 -38 -23 c-43
-24 -58 -20 -40 12 12 24 10 27 -8 9z"/>
<path d="M615 340 c-22 -11 -46 -19 -54 -20 -8 0 -12 -3 -9 -6 7 -6 76 12 98
25 29 19 4 19 -35 1z"/>
<path d="M1460 290 c0 -35 2 -61 5 -58 8 7 9 108 1 115 -3 3 -6 -22 -6 -57z"/>
<path d="M1404 321 c4 -6 11 -30 16 -53 l8 -43 -1 49 c-1 32 -7 51 -16 54 -8
3 -11 0 -7 -7z"/>
<path d="M1257 284 c8 -4 8 -14 -3 -39 -16 -40 -17 -45 -5 -45 5 0 11 12 13
28 3 15 9 35 13 45 5 13 3 17 -11 16 -11 0 -14 -3 -7 -5z"/>
<path d="M1188 243 c-21 -8 -38 -19 -38 -24 0 -5 18 0 40 11 22 11 40 23 40
25 0 6 2 7 -42 -12z"/>
<path d="M1253 165 c1 -11 20 -29 42 -42 35 -20 54 -23 160 -23 121 0 195 12
195 32 0 6 -7 5 -17 -3 -11 -10 -56 -15 -151 -18 -146 -3 -204 10 -223 53 -9
20 -9 20 -6 1z"/>
</g>
</svg>
